<svg xmlns="http://www.w3.org/2000/svg" xmlns:xlink="http://www.w3.org/1999/xlink" id="Layer_1" width="100%" x="0" y="0" enable-background="new 0 0 444 98" version="1.1" viewBox="0 0 444 98" xml:space="preserve"><path fill="#FEFFFE" stroke="none" d="M52.000000,1.000000 C182.999985,1.000000 313.999969,1.000000 445.000000,1.000000 C445.000000,33.666656 445.000000,66.333313 445.000000,98.999985 C297.000000,99.000000 149.000000,99.000000 1.305453,98.487869 C1.813660,97.955162 2.016414,97.934593 2.671650,97.859711 C13.342380,97.848251 23.560629,97.891106 33.966896,97.911667 C34.258766,97.829315 34.457165,97.754631 34.450516,97.711693 C34.417274,97.496979 34.330269,97.290604 34.038536,96.812820 C29.698633,92.293488 24.525352,88.640701 21.705212,83.656471 C17.072489,75.468727 17.003708,66.323631 21.846680,57.908737 C26.642727,49.575390 34.560085,47.951668 43.468357,48.947060 C57.438560,50.508064 65.355217,65.859550 58.239788,77.731056 C54.578342,83.839890 46.877750,86.869324 39.618992,85.056526 C33.097271,83.427803 28.951391,78.575569 28.714933,72.203865 C29.197702,72.400429 29.678373,72.525658 30.085293,72.772469 C35.604446,76.120193 39.753525,76.032379 43.214355,72.473167 C46.430225,69.165886 47.056911,64.314087 44.758045,60.521999 C42.134777,56.194801 36.889908,54.366474 31.684662,55.964699 C24.260006,58.244373 20.983372,66.239059 23.504322,75.923981 C27.084517,89.678268 39.198723,97.379578 55.023190,95.961311 C68.823723,94.724442 80.262268,83.525398 80.975731,70.552200 C81.768867,56.129875 73.444725,45.595737 58.317619,43.127708 C49.220676,41.643517 39.920536,41.404762 30.264671,40.567551 C30.264671,30.478788 30.264671,19.430084 30.264671,8.088179 C37.682060,7.052139 44.512527,8.227266 49.063354,13.960285 C55.275768,21.786530 52.173241,29.843224 47.321835,37.128418 C53.157581,38.292084 58.490978,39.472561 63.875450,40.333687 C64.995041,40.512741 66.745438,39.868164 67.456947,38.994118 C74.365135,30.507858 73.867043,16.831305 65.749168,9.432568 C61.846287,5.875425 56.624516,3.765369 52.000000,1.000000 M124.742027,86.002296 C132.904022,86.002388 141.066956,85.923637 149.227783,86.020966 C161.581665,86.168297 171.035400,81.999603 174.940826,69.242867 C174.987122,69.091637 175.396729,69.051628 175.636902,68.959641 C179.969925,80.423119 188.399124,86.790237 199.373093,87.172455 C209.898132,87.539040 218.997528,85.122635 225.109085,75.130028 C219.302353,72.241592 215.064514,67.920494 207.858139,73.048035 C201.332687,77.691086 192.948593,72.735733 192.359970,64.825333 C203.451370,64.825333 214.516144,64.825333 225.456680,64.825333 C227.480927,52.459152 221.535095,42.387554 210.563629,38.798477 C195.063568,33.727974 183.545288,39.716255 174.319763,58.093235 C171.878647,50.866634 166.578033,47.345863 159.627167,45.620129 C160.280029,45.012863 160.603867,44.642216 160.992279,44.360626 C168.422256,38.973927 169.207932,31.342665 167.525055,23.305550 C165.927170,15.674296 160.190796,11.823418 152.923172,10.930304 C146.027649,10.082920 139.006943,10.220299 132.038666,10.013011 C128.474243,9.906980 124.904083,9.994423 121.102417,9.994423 C121.102417,34.904987 121.068283,58.882141 121.216736,82.858162 C121.223244,83.909081 122.901680,84.949646 124.742027,86.002296 M343.526154,38.737061 C329.285278,45.288673 323.853485,61.543793 331.099396,75.201462 C336.799652,85.945747 352.402496,92.676819 366.699585,81.743202 C367.020142,83.147240 367.325989,84.486908 367.588959,85.638657 C372.933044,85.638657 377.850525,85.638657 382.742920,85.638657 C382.742920,59.259830 382.742920,33.245872 382.742920,7.221435 C377.364349,7.221435 372.451263,7.221435 367.025787,7.221435 C367.025787,13.334100 367.025787,19.121880 367.025787,24.909660 C367.025787,30.640060 367.025787,36.370461 367.025787,42.718517 C359.592560,37.500690 352.271484,35.823544 343.526154,38.737061 M436.568146,79.053238 C447.912018,66.615791 444.738983,48.501026 429.733002,40.845757 C419.156525,35.450188 408.524170,35.869255 398.361664,41.882389 C382.944214,51.004837 382.652435,72.906525 397.546753,82.762077 C407.179108,89.135750 427.442566,89.263626 436.568146,79.053238 M291.874542,58.999142 C292.987854,53.560516 296.870514,49.970783 301.529938,50.072186 C306.020203,50.169903 309.279083,53.886948 309.804871,59.695454 C309.984253,61.677017 309.865906,63.686386 309.867279,65.683060 C309.871857,72.282051 309.868988,78.881042 309.868988,85.634506 C315.554657,85.634506 320.591919,85.634506 325.948242,85.634506 C325.948242,74.312752 326.203430,63.347874 325.837616,52.403751 C325.661957,47.148464 322.683746,42.984329 317.881287,40.508259 C309.015320,35.937130 300.397705,35.713802 292.444916,42.738373 C290.921356,38.545189 282.773926,37.346943 275.431610,39.823349 C275.431610,55.054451 275.431610,70.285561 275.431610,85.630814 C280.981537,85.630814 286.188568,85.630814 291.850922,85.630814 C291.850922,76.810135 291.850922,68.354408 291.874542,58.999142 M245.854889,45.500004 C245.854889,32.753170 245.854889,20.006332 245.854889,7.337067 C239.832565,7.337067 234.624130,7.337067 229.399628,7.337067 C229.399628,33.684715 229.399628,59.574013 229.399628,85.667328 C234.925064,85.667328 240.134903,85.667328 245.854614,85.667328 C245.854614,72.387405 245.854614,59.443707 245.854889,45.500004 M252.006348,81.334473 C252.114304,82.767380 252.222275,84.200287 252.326187,85.579422 C257.781799,85.579422 262.825470,85.579422 267.852234,85.579422 C267.852234,69.937515 267.852234,54.715096 267.852234,39.236423 C262.516602,39.236423 257.492310,39.236423 252.006241,39.236423 C252.006241,53.182453 252.006241,66.774460 252.006348,81.334473 M269.532104,22.625101 C272.354156,14.953297 264.752594,8.480839 259.230682,9.512472 C254.556534,10.385716 251.295227,13.675177 250.928375,18.084871 C250.520752,22.984890 252.611633,26.442707 257.091095,28.321928 C261.438324,30.145670 265.756805,28.283356 269.532104,22.625101 z" opacity="1"/><path fill="#73E7C7" stroke="none" d="M51.531342,1.000000 C56.624516,3.765369 61.846287,5.875425 65.749168,9.432568 C73.867043,16.831305 74.365135,30.507858 67.456947,38.994118 C66.745438,39.868164 64.995041,40.512741 63.875450,40.333687 C58.490978,39.472561 53.157581,38.292084 47.321835,37.128418 C52.173241,29.843224 55.275768,21.786530 49.063354,13.960285 C44.512527,8.227266 37.682060,7.052139 30.264671,8.088179 C30.264671,19.430084 30.264671,30.478788 30.264671,40.567551 C39.920536,41.404762 49.220676,41.643517 58.317619,43.127708 C73.444725,45.595737 81.768867,56.129875 80.975731,70.552200 C80.262268,83.525398 68.823723,94.724442 55.023190,95.961311 C39.198723,97.379578 27.084517,89.678268 23.504322,75.923981 C20.983372,66.239059 24.260006,58.244373 31.684662,55.964699 C36.889908,54.366474 42.134777,56.194801 44.758045,60.521999 C47.056911,64.314087 46.430225,69.165886 43.214355,72.473167 C39.753525,76.032379 35.604446,76.120193 30.085293,72.772469 C29.678373,72.525658 29.197702,72.400429 28.714933,72.203865 C28.951391,78.575569 33.097271,83.427803 39.618992,85.056526 C46.877750,86.869324 54.578342,83.839890 58.239788,77.731056 C65.355217,65.859550 57.438560,50.508064 43.468357,48.947060 C34.560085,47.951668 26.642727,49.575390 21.846680,57.908737 C17.003708,66.323631 17.072489,75.468727 21.705212,83.656471 C24.525352,88.640701 29.698633,92.293488 33.910629,97.021866 C34.006355,97.499390 33.778877,97.933952 33.778877,97.933960 C23.560629,97.891106 13.342380,97.848251 2.632438,97.525406 C8.248662,92.921989 9.115019,86.814789 9.019074,79.792931 C8.711986,57.317966 9.085545,34.833313 8.729713,12.359789 C8.669463,8.554461 6.301674,4.785671 5.000000,1.000000 C20.354227,1.000000 35.708454,1.000000 51.531342,1.000000 z" opacity="1"/><path fill="#FBFEFD" stroke="none" d="M4.500000,1.000000 C6.301674,4.785671 8.669463,8.554461 8.729713,12.359789 C9.085545,34.833313 8.711986,57.317966 9.019074,79.792931 C9.115019,86.814789 8.248662,92.921989 2.179956,97.579712 C2.016414,97.934593 1.813660,97.955162 1.305453,97.987869 C1.000000,65.666664 1.000000,33.333332 1.007471,0.999999 C2.009961,1.000000 3.004981,1.000000 4.500000,1.000000 z" opacity="1"/><path fill="#73E6C7" stroke="none" d="M124.271667,85.998672 C122.901680,84.949646 121.223244,83.909081 121.216736,82.858162 C121.068283,58.882141 121.102417,34.904987 121.102417,9.994423 C124.904083,9.994423 128.474243,9.906980 132.038666,10.013011 C139.006943,10.220299 146.027649,10.082920 152.923172,10.930304 C160.190796,11.823418 165.927170,15.674296 167.525055,23.305550 C169.207932,31.342665 168.422256,38.973927 160.992279,44.360626 C160.603867,44.642216 160.280029,45.012863 159.627167,45.620129 C166.578033,47.345863 171.878647,50.866634 174.319763,58.093235 C183.545288,39.716255 195.063568,33.727974 210.563629,38.798477 C221.535095,42.387554 227.480927,52.459152 225.456680,64.825333 C214.516144,64.825333 203.451370,64.825333 192.359970,64.825333 C192.948593,72.735733 201.332687,77.691086 207.858139,73.048035 C215.064514,67.920494 219.302353,72.241592 225.109085,75.130028 C218.997528,85.122635 209.898132,87.539040 199.373093,87.172455 C188.399124,86.790237 179.969925,80.423119 175.636902,68.959641 C175.396729,69.051628 174.987122,69.091637 174.940826,69.242867 C171.035400,81.999603 161.581665,86.168297 149.227783,86.020966 C141.066956,85.923637 132.904022,86.002388 124.271667,85.998672 M138.840668,62.535622 C138.840668,65.801086 138.840668,69.066559 138.840668,73.063347 C143.047104,72.650757 146.473938,72.441452 149.859863,71.950211 C154.030914,71.345062 156.515182,68.698936 156.711761,64.584068 C156.908005,60.476200 155.382767,56.801937 150.899673,55.866505 C147.134323,55.080833 143.211227,55.051155 138.840378,54.637833 C138.840378,57.628548 138.840378,59.595070 138.840668,62.535622 M150.883453,28.188946 C148.302338,23.415834 143.828659,23.658924 139.220779,23.295378 C139.220779,29.062666 139.220779,34.273434 139.220779,39.446404 C148.222321,40.159763 151.318298,37.326080 150.883453,28.188946 M207.821411,55.829872 C211.271545,55.403221 209.749039,53.372437 208.906570,51.928749 C206.632843,48.032345 202.846069,47.459129 198.884415,48.153690 C195.108063,48.815765 192.670975,51.031345 192.541428,55.843079 C197.445984,55.843079 202.203979,55.843079 207.821411,55.829872 z" opacity="1"/><path fill="#72E6C7" stroke="none" d="M343.885559,38.574493 C352.271484,35.823544 359.592560,37.500690 367.025787,42.718517 C367.025787,36.370461 367.025787,30.640060 367.025787,24.909660 C367.025787,19.121880 367.025787,13.334100 367.025787,7.221435 C372.451263,7.221435 377.364349,7.221435 382.742920,7.221435 C382.742920,33.245872 382.742920,59.259830 382.742920,85.638657 C377.850525,85.638657 372.933044,85.638657 367.588959,85.638657 C367.325989,84.486908 367.020142,83.147240 366.699585,81.743202 C352.402496,92.676819 336.799652,85.945747 331.099396,75.201462 C323.853485,61.543793 329.285278,45.288673 343.885559,38.574493 M356.502136,73.156448 C363.778992,72.613831 367.234283,69.048462 367.154266,62.164978 C367.083191,56.051273 362.466095,51.239765 356.600525,51.166885 C351.078552,51.098282 346.286957,55.436180 345.833130,60.914799 C345.227600,68.224503 348.421844,72.202057 356.502136,73.156448 z" opacity="1"/><path fill="#72E6C7" stroke="none" d="M436.312195,79.308815 C427.442566,89.263626 407.179108,89.135750 397.546753,82.762077 C382.652435,72.906525 382.944214,51.004837 398.361664,41.882389 C408.524170,35.869255 419.156525,35.450188 429.733002,40.845757 C444.738983,48.501026 447.912018,66.615791 436.312195,79.308815 M409.488220,52.765633 C404.555969,56.425819 402.841797,61.001469 404.525543,66.012474 C406.252991,71.153564 409.610596,73.320961 415.593109,73.156853 C420.901917,73.011230 424.360565,70.365051 425.636139,65.265343 C426.682281,61.083103 425.661835,57.242664 422.565704,54.334465 C418.995636,50.981087 414.707855,50.383183 409.488220,52.765633 z" opacity="1"/><path fill="#73E6C7" stroke="none" d="M291.862732,59.448914 C291.850922,68.354408 291.850922,76.810135 291.850922,85.630814 C286.188568,85.630814 280.981537,85.630814 275.431610,85.630814 C275.431610,70.285561 275.431610,55.054451 275.424683,39.822166 C282.773926,37.346943 290.921356,38.545189 292.444916,42.738373 C300.397705,35.713802 309.015320,35.937130 317.881287,40.508259 C322.683746,42.984329 325.661957,47.148464 325.837616,52.403751 C326.203430,63.347874 325.948242,74.312752 325.948242,85.634506 C320.591919,85.634506 315.554657,85.634506 309.868988,85.634506 C309.868988,78.881042 309.871857,72.282051 309.867279,65.683060 C309.865906,63.686386 309.984253,61.677017 309.804871,59.695454 C309.279083,53.886948 306.020203,50.169903 301.529938,50.072186 C296.870514,49.970783 292.987854,53.560516 291.862732,59.448914 z" opacity="1"/><path fill="#75E7C8" stroke="none" d="M245.854752,46.000008 C245.854614,59.443707 245.854614,72.387405 245.854614,85.667328 C240.134903,85.667328 234.925064,85.667328 229.399628,85.667328 C229.399628,59.574013 229.399628,33.684715 229.399628,7.337067 C234.624130,7.337067 239.832565,7.337067 245.854889,7.337067 C245.854889,20.006332 245.854889,32.753170 245.854752,46.000008 z" opacity="1"/><path fill="#70E6C6" stroke="none" d="M252.006287,80.850464 C252.006241,66.774460 252.006241,53.182453 252.006241,39.236423 C257.492310,39.236423 262.516602,39.236423 267.852234,39.236423 C267.852234,54.715096 267.852234,69.937515 267.852234,85.579422 C262.825470,85.579422 257.781799,85.579422 252.326187,85.579422 C252.222275,84.200287 252.114304,82.767380 252.006287,80.850464 z" opacity="1"/><path fill="#73E7C7" stroke="none" d="M269.361389,22.981228 C265.756805,28.283356 261.438324,30.145670 257.091095,28.321928 C252.611633,26.442707 250.520752,22.984890 250.928375,18.084871 C251.295227,13.675177 254.556534,10.385716 259.230682,9.512472 C264.752594,8.480839 272.354156,14.953297 269.361389,22.981228 z" opacity="1"/><path fill="#FBFEFD" stroke="none" d="M33.966896,97.911659 C33.778877,97.933952 34.006355,97.499390 34.134262,97.290344 C34.330269,97.290604 34.417274,97.496979 34.450516,97.711693 C34.457165,97.754631 34.258766,97.829315 33.966896,97.911659 z" opacity="1"/><path fill="#FBFEFE" stroke="none" d="M138.840515,62.048607 C138.840378,59.595070 138.840378,57.628548 138.840378,54.637833 C143.211227,55.051155 147.134323,55.080833 150.899673,55.866505 C155.382767,56.801937 156.908005,60.476200 156.711761,64.584068 C156.515182,68.698936 154.030914,71.345062 149.859863,71.950211 C146.473938,72.441452 143.047104,72.650757 138.840668,73.063347 C138.840668,69.066559 138.840668,65.801086 138.840515,62.048607 z" opacity="1"/><path fill="#FBFEFD" stroke="none" d="M150.963379,28.597145 C151.318298,37.326080 148.222321,40.159763 139.220779,39.446404 C139.220779,34.273434 139.220779,29.062666 139.220779,23.295378 C143.828659,23.658924 148.302338,23.415834 150.963379,28.597145 z" opacity="1"/><path fill="#F1FDF9" stroke="none" d="M207.391693,55.836475 C202.203979,55.843079 197.445984,55.843079 192.541428,55.843079 C192.670975,51.031345 195.108063,48.815765 198.884415,48.153690 C202.846069,47.459129 206.632843,48.032345 208.906570,51.928749 C209.749039,53.372437 211.271545,55.403221 207.391693,55.836475 z" opacity="1"/><path fill="#FDFFFE" stroke="none" d="M356.080292,73.153015 C348.421844,72.202057 345.227600,68.224503 345.833130,60.914799 C346.286957,55.436180 351.078552,51.098282 356.600525,51.166885 C362.466095,51.239765 367.083191,56.051273 367.154266,62.164978 C367.234283,69.048462 363.778992,72.613831 356.080292,73.153015 z" opacity="1"/><path fill="#FBFEFE" stroke="none" d="M409.820618,52.575653 C414.707855,50.383183 418.995636,50.981087 422.565704,54.334465 C425.661835,57.242664 426.682281,61.083103 425.636139,65.265343 C424.360565,70.365051 420.901917,73.011230 415.593109,73.156853 C409.610596,73.320961 406.252991,71.153564 404.525543,66.012474 C402.841797,61.001469 404.555969,56.425819 409.820618,52.575653 z" opacity="1"/></svg>