<?xml version="1.0"?>
<svg width="17" height="17" xmlns="http://www.w3.org/2000/svg" xmlns:svg="http://www.w3.org/2000/svg">
 <g class="layer">
  <title>Layer 1</title>
  <path clip-rule="evenodd" d="m4.34,0l7.61,0c2.77,0 4.35,1.56 4.35,4.34l0,7.61c0,2.77 -1.58,4.35 -4.35,4.35l-7.61,0c-2.78,0 -4.34,-1.58 -4.34,-4.35l0,-7.61c0,-2.78 1.56,-4.34 4.34,-4.34zm4.48,8.82l2.31,0c0.38,0 0.68,-0.31 0.68,-0.68c0,-0.37 -0.3,-0.68 -0.68,-0.68l-2.31,0l0,-2.29c0,-0.38 -0.31,-0.68 -0.68,-0.68c-0.37,0 -0.68,0.3 -0.68,0.68l0,2.29l-2.3,0c-0.18,0 -0.35,0.08 -0.48,0.2c-0.13,0.13 -0.2,0.3 -0.2,0.48c0,0.37 0.3,0.68 0.68,0.68l2.3,0l0,2.31c0,0.38 0.31,0.68 0.68,0.68c0.37,0 0.68,-0.3 0.68,-0.68l0,-2.31z" fill="#29e8b4" fill-rule="evenodd" id="svg_1"/>
 </g>
</svg>